<mxfile host="app.diagrams.net" agent="Mozilla/5.0 (Windows NT 10.0; Win64; x64) AppleWebKit/537.36 (KHTML, like Gecko) Chrome/128.0.0.0 Safari/537.36" version="24.7.12">
  <diagram name="หน้า-1" id="74sTmVdNbZhfFLTj6exV">
    <mxGraphModel dx="1050" dy="603" grid="1" gridSize="10" guides="1" tooltips="1" connect="1" arrows="1" fold="1" page="1" pageScale="1" pageWidth="827" pageHeight="1169" math="0" shadow="0">
      <root>
        <mxCell id="0" />
        <mxCell id="1" parent="0" />
        <mxCell id="hZglfYILaU80LECFSdAR-10" value="" style="edgeStyle=orthogonalEdgeStyle;rounded=0;orthogonalLoop=1;jettySize=auto;html=1;" edge="1" parent="1" source="hZglfYILaU80LECFSdAR-3" target="hZglfYILaU80LECFSdAR-8">
          <mxGeometry relative="1" as="geometry" />
        </mxCell>
        <mxCell id="hZglfYILaU80LECFSdAR-11" style="edgeStyle=orthogonalEdgeStyle;rounded=0;orthogonalLoop=1;jettySize=auto;html=1;entryX=0.5;entryY=0;entryDx=0;entryDy=0;" edge="1" parent="1" source="hZglfYILaU80LECFSdAR-3" target="hZglfYILaU80LECFSdAR-9">
          <mxGeometry relative="1" as="geometry" />
        </mxCell>
        <mxCell id="hZglfYILaU80LECFSdAR-3" value="Questionaire&lt;br&gt;Personal Data" style="rounded=0;whiteSpace=wrap;html=1;" vertex="1" parent="1">
          <mxGeometry x="120" y="180" width="120" height="60" as="geometry" />
        </mxCell>
        <mxCell id="hZglfYILaU80LECFSdAR-7" value="" style="edgeStyle=orthogonalEdgeStyle;rounded=0;orthogonalLoop=1;jettySize=auto;html=1;" edge="1" parent="1" source="hZglfYILaU80LECFSdAR-6" target="hZglfYILaU80LECFSdAR-3">
          <mxGeometry relative="1" as="geometry" />
        </mxCell>
        <mxCell id="hZglfYILaU80LECFSdAR-6" value="Start" style="ellipse;whiteSpace=wrap;html=1;" vertex="1" parent="1">
          <mxGeometry x="130" y="70" width="100" height="60" as="geometry" />
        </mxCell>
        <mxCell id="hZglfYILaU80LECFSdAR-20" value="" style="edgeStyle=orthogonalEdgeStyle;rounded=0;orthogonalLoop=1;jettySize=auto;html=1;" edge="1" parent="1" source="hZglfYILaU80LECFSdAR-8" target="hZglfYILaU80LECFSdAR-18">
          <mxGeometry relative="1" as="geometry" />
        </mxCell>
        <mxCell id="hZglfYILaU80LECFSdAR-8" value="register" style="shape=datastore;whiteSpace=wrap;html=1;" vertex="1" parent="1">
          <mxGeometry x="310" y="180" width="60" height="60" as="geometry" />
        </mxCell>
        <mxCell id="hZglfYILaU80LECFSdAR-13" style="edgeStyle=orthogonalEdgeStyle;rounded=0;orthogonalLoop=1;jettySize=auto;html=1;exitX=1;exitY=0.5;exitDx=0;exitDy=0;entryX=0;entryY=0.5;entryDx=0;entryDy=0;" edge="1" parent="1" source="hZglfYILaU80LECFSdAR-9" target="hZglfYILaU80LECFSdAR-12">
          <mxGeometry relative="1" as="geometry" />
        </mxCell>
        <mxCell id="hZglfYILaU80LECFSdAR-15" style="edgeStyle=orthogonalEdgeStyle;rounded=0;orthogonalLoop=1;jettySize=auto;html=1;exitX=0.5;exitY=1;exitDx=0;exitDy=0;entryX=0.5;entryY=0;entryDx=0;entryDy=0;" edge="1" parent="1" source="hZglfYILaU80LECFSdAR-9" target="hZglfYILaU80LECFSdAR-14">
          <mxGeometry relative="1" as="geometry" />
        </mxCell>
        <mxCell id="hZglfYILaU80LECFSdAR-9" value="Questionaire&lt;br&gt;school of engineering" style="rounded=0;whiteSpace=wrap;html=1;" vertex="1" parent="1">
          <mxGeometry x="120" y="290" width="120" height="60" as="geometry" />
        </mxCell>
        <mxCell id="hZglfYILaU80LECFSdAR-21" value="" style="edgeStyle=orthogonalEdgeStyle;rounded=0;orthogonalLoop=1;jettySize=auto;html=1;" edge="1" parent="1" source="hZglfYILaU80LECFSdAR-12" target="hZglfYILaU80LECFSdAR-19">
          <mxGeometry relative="1" as="geometry" />
        </mxCell>
        <mxCell id="hZglfYILaU80LECFSdAR-12" value="QA" style="shape=datastore;whiteSpace=wrap;html=1;" vertex="1" parent="1">
          <mxGeometry x="310" y="290" width="60" height="60" as="geometry" />
        </mxCell>
        <mxCell id="hZglfYILaU80LECFSdAR-17" value="" style="edgeStyle=orthogonalEdgeStyle;rounded=0;orthogonalLoop=1;jettySize=auto;html=1;" edge="1" parent="1" source="hZglfYILaU80LECFSdAR-14" target="hZglfYILaU80LECFSdAR-16">
          <mxGeometry relative="1" as="geometry" />
        </mxCell>
        <mxCell id="hZglfYILaU80LECFSdAR-14" value="&lt;span style=&quot;font-kerning: none;&quot; class=&quot;OYPEnA font-feature-liga-off font-feature-clig-off font-feature-calt-off text-decoration-none text-strikethrough-none&quot;&gt;Character&lt;/span&gt;" style="rounded=0;whiteSpace=wrap;html=1;" vertex="1" parent="1">
          <mxGeometry x="120" y="400" width="120" height="60" as="geometry" />
        </mxCell>
        <mxCell id="hZglfYILaU80LECFSdAR-16" value="End" style="ellipse;whiteSpace=wrap;html=1;" vertex="1" parent="1">
          <mxGeometry x="130" y="500" width="100" height="60" as="geometry" />
        </mxCell>
        <mxCell id="hZglfYILaU80LECFSdAR-22" style="edgeStyle=orthogonalEdgeStyle;rounded=0;orthogonalLoop=1;jettySize=auto;html=1;exitX=1;exitY=0.5;exitDx=0;exitDy=0;" edge="1" parent="1" source="hZglfYILaU80LECFSdAR-18">
          <mxGeometry relative="1" as="geometry">
            <mxPoint x="620" y="210" as="targetPoint" />
          </mxGeometry>
        </mxCell>
        <mxCell id="hZglfYILaU80LECFSdAR-18" value="report register&lt;br&gt;(excel)" style="rounded=0;whiteSpace=wrap;html=1;" vertex="1" parent="1">
          <mxGeometry x="440" y="180" width="120" height="60" as="geometry" />
        </mxCell>
        <mxCell id="hZglfYILaU80LECFSdAR-23" style="edgeStyle=orthogonalEdgeStyle;rounded=0;orthogonalLoop=1;jettySize=auto;html=1;exitX=1;exitY=0.5;exitDx=0;exitDy=0;" edge="1" parent="1" source="hZglfYILaU80LECFSdAR-19">
          <mxGeometry relative="1" as="geometry">
            <mxPoint x="620" y="320" as="targetPoint" />
          </mxGeometry>
        </mxCell>
        <mxCell id="hZglfYILaU80LECFSdAR-19" value="report QA&lt;br&gt;(excel)" style="rounded=0;whiteSpace=wrap;html=1;" vertex="1" parent="1">
          <mxGeometry x="440" y="290" width="120" height="60" as="geometry" />
        </mxCell>
      </root>
    </mxGraphModel>
  </diagram>
</mxfile>
